<svg viewBox="0 0 203 64" fill="none" xmlns="http://www.w3.org/2000/svg">
    <path d="M63.8498 0H-3.66611e-06V63.8498H63.8498V0Z" fill="#6ECD96"></path>
    <path d="M10.6421 27.0054L36.182 12.2454L44.6948 17.1649L19.1549 31.9249L10.6421 27.0054Z" fill="white"></path>
    <path d="M44.6947 31.9249L53.2075 36.8444L27.6691 51.6029L19.1548 46.6834L44.6947 31.9249Z" fill="white"></path>
    <path d="M21.2842 33.1544L29.797 38.0739L42.5669 30.6954L34.0541 25.7744L21.2842 33.1544Z" fill="white"></path>
    <g id="subsidia" class="hidden lg:block">
        <path d="M82.1861 37C82.2511 38.4408 83.3978 39.7183 85.5594 39.7183C87.4919 39.7183 88.8353 38.8017 88.8678 37.3275C88.9011 36.3117 88.4419 35.4275 86.1494 34.7725L83.4303 34.0225C78.4519 32.4825 77.5969 29.5675 77.5969 27.5367C77.5969 23.5083 81.0361 20.7867 85.3594 20.7867C89.7161 20.7867 92.9919 23.3742 92.9919 27.6983H88.2128C88.2128 26.1917 87.1978 25.1433 85.2961 25.1433C83.6253 25.1433 82.3794 26.06 82.3794 27.4033C82.3794 27.9925 82.6086 29.07 84.8028 29.6958L87.4886 30.5475C92.9586 32.12 93.7453 35.1992 93.6794 37.3608C93.6136 41.8483 89.5528 43.9775 85.5561 43.9775C80.6469 43.9767 77.3711 41.0608 77.3711 37H82.1861Z"
              fill="black"></path>
        <path d="M106.563 28.32H111.115V43.6158H106.563V41.52C105.744 43.0592 104.073 43.9433 102.6 43.9433C99.1604 43.9433 96.5396 41.815 96.5396 37.4583V28.32H101.093V36.4758C101.093 38.8992 102.76 39.5217 103.811 39.5217C105.22 39.5217 106.561 38.7358 106.561 36.41L106.563 28.32Z"
              fill="black"></path>
        <path d="M114.558 43.6158V20H119.078V30.1867C119.828 28.7783 121.661 27.9917 123.565 27.9917C127.496 27.9917 130.968 31.1042 130.968 36.0167C130.968 40.8317 127.496 43.9433 123.565 43.9433C121.665 43.9433 119.831 43.125 119.078 41.7167V43.6158H114.558ZM122.713 39.62C124.646 39.62 126.251 38.1783 126.251 35.9183C126.251 33.7242 124.646 32.2833 122.713 32.2833C120.847 32.2833 119.176 33.6258 119.176 35.9183C119.176 38.1133 120.813 39.62 122.713 39.62Z"
              fill="black"></path>
        <path d="M138.24 37.3275C133.656 36.0825 133.621 33.7567 133.656 32.3483C133.689 30.0883 136.406 27.9917 139.618 27.9917C142.664 27.9917 145.874 29.335 145.906 33.0692H141.613C141.58 31.9225 140.598 31.7258 139.877 31.7258C138.895 31.7258 138.24 32.185 138.272 32.8725C138.305 33.3308 138.698 33.7892 139.615 34.0192L142.205 34.7067C145.905 35.7225 146.365 38.1783 146.365 39.1617C146.365 42.4042 142.958 43.9433 139.748 43.9433C136.636 43.9433 133.394 42.0767 133.36 38.67H137.621C137.654 39.5542 138.637 40.4392 139.881 40.4392C140.897 40.4058 141.749 39.9475 141.749 39.1617C141.749 38.5067 141.355 38.1458 140.241 37.8517L138.24 37.3275Z"
              fill="black"></path>
        <path d="M151.833 20C153.371 20 154.621 21.1467 154.621 22.6533C154.621 24.16 153.371 25.3392 151.833 25.3392C150.295 25.3392 148.983 24.16 148.983 22.6533C148.983 21.1467 150.293 20 151.833 20ZM154.093 43.6158H149.573V28.32H154.093V43.6158Z"
              fill="black"></path>
        <path d="M169.288 43.6158V41.7167C168.538 43.125 166.705 43.9433 164.8 43.9433C160.87 43.9433 157.398 40.8317 157.398 36.0167C157.398 31.1042 160.87 27.9917 164.8 27.9917C166.7 27.9917 168.535 28.7783 169.288 30.1867V20H173.808V43.6158H169.288ZM165.652 32.2825C163.72 32.2825 162.115 33.7233 162.115 35.9175C162.115 38.1775 163.72 39.6192 165.652 39.6192C167.552 39.6192 169.19 38.1125 169.19 35.9175C169.192 33.6258 167.522 32.2833 165.655 32.2833L165.652 32.2825Z"
              fill="black"></path>
        <path d="M180.263 20C181.803 20 183.047 21.1467 183.047 22.6533C183.047 24.16 181.803 25.3392 180.263 25.3392C178.723 25.3392 177.414 24.16 177.414 22.6533C177.414 21.1467 178.724 20 180.263 20ZM182.523 43.6158H178.003V28.32H182.523V43.6158Z"
              fill="black"></path>
        <path d="M198.049 41.88C197.066 43.3542 194.773 43.9108 193.594 43.9108C189.696 43.9108 185.799 40.865 185.799 35.9517C185.799 31.0383 189.696 27.9917 193.594 27.9917C194.577 27.9917 196.87 28.32 198.049 30.0225V28.32H202.569V43.6158H198.049V41.88ZM194.347 39.5875C196.215 39.5875 198.049 38.2442 198.049 35.9517C198.049 33.6592 196.215 32.3158 194.347 32.3158C192.448 32.3158 190.514 33.7567 190.514 35.9517C190.514 38.1467 192.448 39.5875 194.347 39.5875Z"
              fill="black"></path>
    </g>
</svg>